<svg width="25" height="24" viewBox="0 0 25 24" fill="none" xmlns="http://www.w3.org/2000/svg">
<g clip-path="url(#clip0_954_5074)">
<path d="M24.3259 12C24.3259 14.3734 23.6221 16.6935 22.3035 18.6668C20.9849 20.6402 19.1108 22.1783 16.9181 23.0866C14.7254 23.9948 12.3126 24.2324 9.98479 23.7694C7.65702 23.3064 5.51882 22.1635 3.84059 20.4853C2.16236 18.8071 1.01947 16.6689 0.556449 14.3411C0.0934261 12.0133 0.331066 9.60051 1.23932 7.4078C2.14757 5.21509 3.68564 3.34094 5.65903 2.02236C7.63242 0.703788 9.9525 0 12.3259 0V0C15.5085 0 18.5607 1.26428 20.8112 3.51472C23.0616 5.76515 24.3259 8.8174 24.3259 12Z" fill="#8DC63F"/>
<path d="M23.4259 12C23.4279 14.1958 22.7785 16.3429 21.5601 18.1696C20.3416 19.9963 18.6087 21.4206 16.5806 22.2622C14.5525 23.1039 12.3204 23.3251 10.1665 22.898C8.01268 22.4708 6.03391 21.4144 4.48055 19.8625C2.92719 18.3105 1.86902 16.3327 1.43991 14.1792C1.01081 12.0258 1.23004 9.79341 2.06988 7.76457C2.90971 5.73572 4.33242 4.00155 6.15802 2.78142C7.98363 1.5613 10.1301 0.91004 12.3259 0.910039C13.7831 0.908725 15.2263 1.19461 16.5729 1.75134C17.9196 2.30808 19.1433 3.12475 20.1742 4.15469C21.205 5.18462 22.0228 6.40762 22.5808 7.75377C23.1387 9.09992 23.4259 10.5428 23.4259 12Z" fill="#F9E988"/>
<path d="M12.5259 1.61997C13.2342 1.50005 13.9576 1.50005 14.6659 1.61997C15.3654 1.74075 16.0407 1.97375 16.6659 2.30997C17.2911 2.67335 17.8804 3.09524 18.4259 3.56997C18.9659 4.00997 19.5159 4.45997 20.0259 4.95997C20.5545 5.44598 21.0153 6.00097 21.3959 6.60997C21.7788 7.21554 22.0909 7.86312 22.3259 8.53997C22.8059 9.89542 22.9434 11.3486 22.7259 12.77H22.6559C22.4512 11.4027 22.0992 10.0615 21.6059 8.76997C21.3813 8.16185 21.1139 7.57037 20.8059 6.99997C20.4856 6.3834 20.1248 5.78876 19.7259 5.21997C19.3445 4.65818 18.8712 4.16462 18.3259 3.75997C17.7548 3.3777 17.1363 3.07177 16.4859 2.84997C15.8559 2.59997 15.2359 2.34997 14.5859 2.15997C13.9359 1.96997 13.2659 1.82997 12.5859 1.68997L12.5259 1.61997Z" fill="white"/>
<path d="M17.9559 7.99999C17.1459 7.76999 16.3159 7.43999 15.4659 7.10999C15.3551 6.78398 15.1409 6.50307 14.8559 6.30999C14.4767 6.0889 14.0536 5.95371 13.6164 5.91397C13.1793 5.87423 12.7387 5.9309 12.3259 6.07999C11.3918 5.83108 10.4124 5.80369 9.46587 5.99999C1.78587 8.10999 6.13587 13.27 3.32587 18.45C3.72587 19.3 8.04587 24.26 14.3259 22.93C14.3259 22.93 12.1859 17.79 17.0159 15.33C20.8959 13.32 23.7259 9.60999 17.9559 7.99999Z" fill="#8BC53F"/>
<path d="M18.9059 11.41C18.9157 11.4768 18.911 11.5449 18.8922 11.6098C18.8733 11.6746 18.8407 11.7346 18.7966 11.7856C18.7525 11.8367 18.6979 11.8777 18.6365 11.9058C18.5751 11.9339 18.5084 11.9484 18.4409 11.9484C18.3734 11.9484 18.3067 11.9339 18.2453 11.9058C18.1839 11.8777 18.1293 11.8367 18.0852 11.7856C18.0411 11.7346 18.0085 11.6746 17.9896 11.6098C17.9707 11.5449 17.9661 11.4768 17.9759 11.41C17.9923 11.2984 18.0483 11.1965 18.1337 11.1227C18.219 11.049 18.3281 11.0084 18.4409 11.0084C18.5537 11.0084 18.6627 11.049 18.7481 11.1227C18.8335 11.1965 18.8895 11.2984 18.9059 11.41Z" fill="white"/>
<path d="M12.3259 6.07999C13.4019 6.26268 14.4459 6.59948 15.4259 7.07999C14.9959 5.81999 13.5359 5.64999 12.3259 6.07999Z" fill="#009345"/>
<path d="M12.8959 9.27002C12.8959 9.69567 12.7695 10.1117 12.5328 10.4655C12.2962 10.8193 11.9598 11.0949 11.5663 11.2573C11.1729 11.4197 10.7401 11.4617 10.3228 11.3779C9.90542 11.2942 9.52235 11.0884 9.22207 10.7867C8.92179 10.485 8.71781 10.101 8.63599 9.6833C8.55416 9.26558 8.59817 8.83298 8.76243 8.4403C8.92669 8.04761 9.20382 7.71253 9.5587 7.47749C9.91358 7.24245 10.3302 7.11804 10.7559 7.12002C11.0378 7.12002 11.3169 7.1757 11.5771 7.28387C11.8374 7.39204 12.0738 7.55056 12.2726 7.75034C12.4715 7.95012 12.6289 8.18721 12.7359 8.44801C12.8428 8.7088 12.8972 8.98815 12.8959 9.27002Z" fill="white"/>
<path d="M12.2658 9.29003C12.2658 9.58868 12.1773 9.88062 12.0114 10.1289C11.8454 10.3773 11.6096 10.5708 11.3337 10.6851C11.0578 10.7994 10.7542 10.8293 10.4613 10.771C10.1684 10.7128 9.8993 10.5689 9.68812 10.3578C9.47694 10.1466 9.33313 9.87753 9.27486 9.58462C9.2166 9.2917 9.2465 8.98809 9.36079 8.71218C9.47508 8.43626 9.66862 8.20043 9.91694 8.03451C10.1653 7.86859 10.4572 7.78003 10.7559 7.78003C11.1563 7.78003 11.5404 7.93912 11.8236 8.2223C12.1068 8.50548 12.2658 8.88955 12.2658 9.29003Z" fill="#58595B"/>
<path d="M20.6459 12.35C18.7655 13.7677 16.4707 14.5268 14.1159 14.51C12.8059 14.51 12.5359 13.12 11.6759 13.8C10.7064 14.4624 9.56922 14.8368 8.39586 14.88C7.4509 14.8391 6.54969 14.4703 5.8471 13.8371C5.14451 13.2039 4.68441 12.3457 4.54586 11.41C4.31586 14.09 4.20586 16.06 3.19586 18.31C4.38704 20.0932 6.08032 21.4829 8.0615 22.3035C10.0427 23.1241 12.2227 23.3387 14.3259 22.92C13.8659 19.68 16.7059 16.49 18.3259 14.87C19.1854 14.0988 19.9814 13.2594 20.7059 12.36L20.6459 12.35Z" fill="#8BC53F"/>
<path d="M20.5759 12.4301C20.0244 12.9123 19.4043 13.31 18.7359 13.6101C18.0764 13.9293 17.3862 14.1806 16.6759 14.3601C15.9638 14.5766 15.2188 14.6647 14.4759 14.6201C13.7209 14.5859 13.0067 14.268 12.4759 13.7301C13.0801 14.092 13.7716 14.2821 14.4759 14.2801C15.1866 14.2985 15.8972 14.2415 16.5959 14.1101C17.2979 13.9621 17.9844 13.7478 18.6459 13.4701C19.3169 13.2277 19.9499 12.891 20.5259 12.4701L20.5759 12.4301Z" fill="#58595B"/>
</g>
<defs>
<clipPath id="clip0_954_5074">
<rect width="24" height="24" fill="white" transform="translate(0.325867)"/>
</clipPath>
</defs>
</svg>
