<svg width="25" height="24" viewBox="0 0 25 24" fill="none" xmlns="http://www.w3.org/2000/svg">
<g clip-path="url(#clip0_954_5072)">
<path d="M23.9538 12V11.9535C23.9305 5.37209 18.6282 0 12.1398 0C5.65145 0 0.325867 5.3721 0.325867 12C0.325867 18.6279 5.62819 24 12.1398 24C15.1276 24.0025 18.0013 22.853 20.1631 20.7907C20.2683 20.6938 20.3531 20.5769 20.4125 20.4468C20.4719 20.3167 20.5047 20.176 20.509 20.033C20.5134 19.8901 20.4891 19.7477 20.4377 19.6142C20.3863 19.4808 20.3087 19.3589 20.2096 19.2558C20.1151 19.1517 20.001 19.0672 19.8738 19.0073C19.7465 18.9474 19.6087 18.9133 19.4683 18.9068C19.3278 18.9003 19.1875 18.9216 19.0553 18.9696C18.9231 19.0175 18.8016 19.0911 18.698 19.1861L18.6747 19.2093C16.8957 20.8916 14.5417 21.8315 12.0933 21.8372C10.7327 21.8377 9.38774 21.5474 8.14842 20.9859C6.9091 20.4244 5.80405 19.6046 4.90727 18.5814L9.95377 10.4884V14.2326C9.95377 16.0233 10.6514 16.6047 11.2328 16.7674C11.8142 16.9302 12.698 16.814 13.6514 15.3023L16.4189 10.814C16.4931 10.6827 16.5787 10.5582 16.6747 10.4419V12.7209C16.6747 14.3954 17.3491 15.7442 18.5119 16.3954C19.0482 16.6874 19.6536 16.8286 20.2637 16.804C20.8739 16.7794 21.466 16.59 21.977 16.2558C23.3259 15.3721 24.0468 13.8372 23.9538 12ZM20.884 14.3488C20.6981 14.476 20.4817 14.5516 20.257 14.568C20.0323 14.5843 19.8073 14.5408 19.6049 14.4419C19.1398 14.1628 18.8608 13.5349 18.8608 12.6744V10.0465C18.8608 8.7907 18.3724 7.88372 17.5352 7.65116C16.1166 7.23256 15.0468 8.97674 14.6515 9.62791L12.1398 13.6512V8.69767C12.1166 7.55814 11.7445 6.88372 11.0468 6.67442C10.5817 6.53489 9.88401 6.60466 9.20959 7.62791L3.60494 16.6047C2.85834 15.1845 2.46732 13.6045 2.4654 12C2.4654 6.5814 6.81424 2.18605 12.1398 2.18605C17.4654 2.18605 21.8142 6.5814 21.8142 12V12.0465C21.8608 13.093 21.5352 13.9302 20.884 14.3488Z" fill="white"/>
</g>
<defs>
<clipPath id="clip0_954_5072">
<rect width="24" height="24" fill="white" transform="translate(0.325867)"/>
</clipPath>
</defs>
</svg>
