<svg width="22" height="20" viewBox="0 0 22 20" fill="none" xmlns="http://www.w3.org/2000/svg">
<g clip-path="url(#clip0_51_2805)">
<path d="M20.7349 0.212769L12.4232 6.36286L13.9688 2.73841L20.7349 0.212769Z" fill="#E17726" stroke="#E17726" stroke-width="0.25" stroke-linecap="round" stroke-linejoin="round"/>
<path d="M1.56287 0.212769L9.80058 6.42024L8.32899 2.73841L1.56287 0.212769Z" fill="#E27625" stroke="#E27625" stroke-width="0.25" stroke-linecap="round" stroke-linejoin="round"/>
<path d="M17.742 14.4728L15.5305 17.8512L20.2659 19.1551L21.6226 14.5466L17.742 14.4728Z" fill="#E27625" stroke="#E27625" stroke-width="0.25" stroke-linecap="round" stroke-linejoin="round"/>
<path d="M0.683105 14.5466L2.03138 19.1551L6.75864 17.8512L4.55532 14.4728L0.683105 14.5466Z" fill="#E27625" stroke="#E27625" stroke-width="0.25" stroke-linecap="round" stroke-linejoin="round"/>
<path d="M6.50386 8.76547L5.18848 10.7499L9.87459 10.9631L9.71842 5.92004L6.50386 8.76547Z" fill="#E27625" stroke="#E27625" stroke-width="0.25" stroke-linecap="round" stroke-linejoin="round"/>
<path d="M15.7935 8.7655L12.5297 5.86267L12.4229 10.9631L17.1089 10.7499L15.7935 8.7655Z" fill="#E27625" stroke="#E27625" stroke-width="0.25" stroke-linecap="round" stroke-linejoin="round"/>
<path d="M6.75854 17.8515L9.59484 16.4821L7.15318 14.5797L6.75854 17.8515Z" fill="#E27625" stroke="#E27625" stroke-width="0.25" stroke-linecap="round" stroke-linejoin="round"/>
<path d="M12.7026 16.4821L15.5307 17.8515L15.1443 14.5797L12.7026 16.4821Z" fill="#E27625" stroke="#E27625" stroke-width="0.25" stroke-linecap="round" stroke-linejoin="round"/>
<path d="M15.5307 17.8512L12.7026 16.4818L12.9328 18.3186L12.9081 19.0976L15.5307 17.8512Z" fill="#D5BFB2" stroke="#D5BFB2" stroke-width="0.25" stroke-linecap="round" stroke-linejoin="round"/>
<path d="M6.75854 17.8512L9.38937 19.0976L9.37291 18.3186L9.59484 16.4818L6.75854 17.8512Z" fill="#D5BFB2" stroke="#D5BFB2" stroke-width="0.25" stroke-linecap="round" stroke-linejoin="round"/>
<path d="M9.4387 13.366L7.0874 12.6772L8.74808 11.9146L9.4387 13.366Z" fill="#233447" stroke="#233447" stroke-width="0.25" stroke-linecap="round" stroke-linejoin="round"/>
<path d="M12.8586 13.366L13.5493 11.9146L15.2182 12.6772L12.8586 13.366Z" fill="#233447" stroke="#233447" stroke-width="0.25" stroke-linecap="round" stroke-linejoin="round"/>
<path d="M6.75857 17.8512L7.16966 14.4728L4.5553 14.5466L6.75857 17.8512Z" fill="#CC6228" stroke="#CC6228" stroke-width="0.25" stroke-linecap="round" stroke-linejoin="round"/>
<path d="M15.1278 14.4728L15.5307 17.8512L17.7422 14.5466L15.1278 14.4728Z" fill="#CC6228" stroke="#CC6228" stroke-width="0.25" stroke-linecap="round" stroke-linejoin="round"/>
<path d="M17.1089 10.7498L12.4229 10.9629L12.8586 13.3656L13.5492 11.9142L15.2181 12.6768L17.1089 10.7498Z" fill="#CC6228" stroke="#CC6228" stroke-width="0.25" stroke-linecap="round" stroke-linejoin="round"/>
<path d="M7.08758 12.6768L8.74827 11.9142L9.43888 13.3656L9.87459 10.9629L5.18848 10.7498L7.08758 12.6768Z" fill="#CC6228" stroke="#CC6228" stroke-width="0.25" stroke-linecap="round" stroke-linejoin="round"/>
<path d="M5.18835 10.7498L7.15325 14.5792L7.08742 12.6768L5.18835 10.7498Z" fill="#E27525" stroke="#E27525" stroke-width="0.25" stroke-linecap="round" stroke-linejoin="round"/>
<path d="M15.2184 12.6768L15.1444 14.5792L17.1093 10.7498L15.2184 12.6768Z" fill="#E27525" stroke="#E27525" stroke-width="0.25" stroke-linecap="round" stroke-linejoin="round"/>
<path d="M9.87485 10.963L9.43909 13.3657L9.98992 16.2029L10.1133 12.4637L9.87485 10.963Z" fill="#E27525" stroke="#E27525" stroke-width="0.25" stroke-linecap="round" stroke-linejoin="round"/>
<path d="M12.4231 10.963L12.1929 12.4555L12.308 16.2029L12.8588 13.3657L12.4231 10.963Z" fill="#E27525" stroke="#E27525" stroke-width="0.25" stroke-linecap="round" stroke-linejoin="round"/>
<path d="M12.8588 13.3655L12.308 16.2027L12.7026 16.4815L15.1444 14.5791L15.2183 12.6766L12.8588 13.3655Z" fill="#F5841F" stroke="#F5841F" stroke-width="0.25" stroke-linecap="round" stroke-linejoin="round"/>
<path d="M7.0874 12.6766L7.15321 14.5791L9.59487 16.4815L9.98951 16.2027L9.4387 13.3655L7.0874 12.6766Z" fill="#F5841F" stroke="#F5841F" stroke-width="0.25" stroke-linecap="round" stroke-linejoin="round"/>
<path d="M12.9081 19.0979L12.9327 18.3189L12.719 18.1384H9.57846L9.37291 18.3189L9.38937 19.0979L6.75854 17.8514L7.67931 18.6058L9.54554 19.8933H12.7436L14.618 18.6058L15.5306 17.8514L12.9081 19.0979Z" fill="#C0AC9D" stroke="#C0AC9D" stroke-width="0.25" stroke-linecap="round" stroke-linejoin="round"/>
<path d="M12.7026 16.4814L12.308 16.2026H9.98962L9.59505 16.4814L9.37305 18.3183L9.57858 18.1378H12.7191L12.9329 18.3183L12.7026 16.4814Z" fill="#161616" stroke="#161616" stroke-width="0.25" stroke-linecap="round" stroke-linejoin="round"/>
<path d="M21.0883 6.76464L21.7871 3.36981L20.7348 0.212769L12.7026 6.15788L15.7938 8.76548L20.1593 10.0365L21.1212 8.91311L20.7019 8.60967L21.3678 8.0029L20.8581 7.60928L21.524 7.10086L21.0883 6.76464Z" fill="#763E1A" stroke="#763E1A" stroke-width="0.25" stroke-linecap="round" stroke-linejoin="round"/>
<path d="M0.510498 3.36981L1.21753 6.76464L0.76536 7.10086L1.4395 7.60928L0.929783 8.0029L1.5957 8.60967L1.17642 8.91311L2.13831 10.0365L6.50382 8.76548L9.59497 6.15788L1.56282 0.212769L0.510498 3.36981Z" fill="#763E1A" stroke="#763E1A" stroke-width="0.25" stroke-linecap="round" stroke-linejoin="round"/>
<path d="M20.1594 10.0369L15.7939 8.76587L17.1093 10.7503L15.1444 14.5797L17.7423 14.547H21.6227L20.1594 10.0369Z" fill="#F5841F" stroke="#F5841F" stroke-width="0.25" stroke-linecap="round" stroke-linejoin="round"/>
<path d="M6.50372 8.76587L2.13826 10.0369L0.683105 14.547H4.55531L7.15321 14.5797L5.18836 10.7503L6.50372 8.76587Z" fill="#F5841F" stroke="#F5841F" stroke-width="0.25" stroke-linecap="round" stroke-linejoin="round"/>
<path d="M12.4232 10.9634L12.7027 6.15807L13.9687 2.73865H8.32898L9.59504 6.15807L9.87455 10.9634L9.98145 12.4722L9.98968 16.2032H12.3081L12.3163 12.4722L12.4232 10.9634Z" fill="#F5841F" stroke="#F5841F" stroke-width="0.25" stroke-linecap="round" stroke-linejoin="round"/>
</g>
<defs>
<clipPath id="clip0_51_2805">
<rect width="21.7021" height="20" fill="white" transform="translate(0.297729)"/>
</clipPath>
</defs>
</svg>
