<svg xmlns="http://www.w3.org/2000/svg" xmlns:xlink="http://www.w3.org/1999/xlink" width="47.128" height="42.5" viewBox="0 0 47.128 42.5">
  <defs>
    <linearGradient id="linear-gradient" x1="0.5" x2="0.735" y2="1" gradientUnits="objectBoundingBox">
      <stop offset="0" stop-color="#ebe2db"/>
      <stop offset="1" stop-color="#76716e"/>
    </linearGradient>
    <linearGradient id="linear-gradient-2" y1="0.67" x2="1.075" gradientUnits="objectBoundingBox">
      <stop offset="0" stop-color="#fff"/>
      <stop offset="1" stop-color="#fff"/>
    </linearGradient>
    <linearGradient id="linear-gradient-4" x1="1" y1="0.044" x2="0.217" y2="1" gradientUnits="objectBoundingBox">
      <stop offset="0" stop-color="#fff"/>
      <stop offset="0.084" stop-color="#fff"/>
      <stop offset="0.739" stop-color="#6f6f6f"/>
      <stop offset="1" stop-color="#909090"/>
    </linearGradient>
  </defs>
  <g id="Group_186" data-name="Group 186" transform="translate(-37 -278.5)">
    <g id="Group_185" data-name="Group 185" transform="translate(0 92)">
      <circle id="Ellipse_7" data-name="Ellipse 7" cx="21" cy="21" r="21" transform="translate(37 187)" fill="#006ded"/>
      <g id="Group_117" data-name="Group 117" transform="translate(19.032 159.389)">
        <g id="Group_79" data-name="Group 79" transform="translate(19.793 48.231)">
          <path id="Path_128" data-name="Path 128" d="M491.181,500.208s0,0,0,0-.02-.045-.033-.067a1.571,1.571,0,0,0-.4-.485,3.359,3.359,0,0,0-.766-.448,3.206,3.206,0,0,0-.784-.262.963.963,0,0,0-.634.075.792.792,0,0,0-.343.429,2.177,2.177,0,0,0-.111.524q-.011.12-.02.224l-.009.067,0,.031c0,.011,0,.023.005.025l.085.054c.039.021.076.042.1.06l.035.025a2.314,2.314,0,0,1,.821-.328,3.768,3.768,0,0,1,1.1-.081,3.837,3.837,0,0,1,.665.1c.057.015.116.026.173.045l.087.027.027.008h.019s0-.013-.005-.015Z" transform="translate(-486.975 -497.828)"/>
          <path id="Path_129" data-name="Path 129" d="M481.059,491.018a1.375,1.375,0,0,1,.228.02,3.207,3.207,0,0,1,.784.262,3.359,3.359,0,0,1,.766.448,1.57,1.57,0,0,1,.4.485c.012.022.022.046.032.067l0,0h0l0,0s.008.014.005.015h-.017l-.029-.009-.087-.027c-.057-.019-.116-.031-.173-.045a3.831,3.831,0,0,0-.665-.1c-.093-.007-.184-.01-.273-.01a3.807,3.807,0,0,0-.825.091,2.314,2.314,0,0,0-.821.328l-.035-.025c-.027-.018-.064-.039-.1-.06l-.085-.054c-.01,0-.007-.014-.006-.025l0-.031.009-.067q.009-.1.02-.224a2.179,2.179,0,0,1,.111-.524.792.792,0,0,1,.343-.429.816.816,0,0,1,.406-.095m0-1.095h0a1.828,1.828,0,0,0-1.774,1.234,3.213,3.213,0,0,0-.174.788l0,.026-.018.2h0l-.006.044,0,.016a1.1,1.1,0,0,0,.567,1.144l.027.017.052.031.027.015a1.1,1.1,0,0,0,1.289-.006,1.752,1.752,0,0,1,.414-.142,2.717,2.717,0,0,1,.582-.064c.064,0,.128,0,.191.007h.017a2.734,2.734,0,0,1,.467.072l.062.015.038.009.017.005.087.027.007,0a1.106,1.106,0,0,0,.341.054c.035,0,.07,0,.1,0a1.12,1.12,0,0,0,.228-.043,1.1,1.1,0,0,0,.747-.781,1.111,1.111,0,0,0-.11-.815c-.009-.019-.02-.04-.032-.063a2.652,2.652,0,0,0-.675-.813,4.414,4.414,0,0,0-1.01-.6,4.2,4.2,0,0,0-1.055-.343,2.45,2.45,0,0,0-.4-.034Z" transform="translate(-479.07 -489.923)"/>
        </g>
        <g id="Group_80" data-name="Group 80" transform="translate(40.09 45.445)">
          <path id="Path_130" data-name="Path 130" d="M646.335,468.527a1.593,1.593,0,0,0,1.033.364,2.4,2.4,0,0,0,1.12-.315,1.921,1.921,0,0,0,.721-.607.923.923,0,0,0,.141-.58c-.157-.019-.312-.042-.464-.067a19.594,19.594,0,0,0-2.841-.3c-.013.029-.027.063-.041.1a1.317,1.317,0,0,0-.082.628A1.163,1.163,0,0,0,646.335,468.527Z" transform="translate(-645.913 -467.027)"/>
        </g>
        <g id="Group_81" data-name="Group 81" transform="translate(29.501 49.338)">
          <path id="Path_132" data-name="Path 132" d="M570.169,509.635l.126.063c.021.013.018,0,.021,0s.032-.03.054-.054.052-.054.077-.081a1.669,1.669,0,0,0,.137-.175,1.264,1.264,0,0,0,.185-.391.9.9,0,0,0,.014-.414.733.733,0,0,0-.168-.353.592.592,0,0,0-.311-.182,1.064,1.064,0,0,0-.4-.012,1.424,1.424,0,0,0-.2.045c-.068.023-.136.047-.2.072a4.478,4.478,0,0,0-1.276.938c-.123.118-.24.228-.35.328a3.2,3.2,0,0,1,.551-.106A3.262,3.262,0,0,1,570.169,509.635Z" transform="translate(-566.775 -506.927)"/>
          <path id="Path_133" data-name="Path 133" d="M562.177,500.117a.934.934,0,0,1,.222.025.593.593,0,0,1,.311.182.732.732,0,0,1,.168.353.9.9,0,0,1-.014.414,1.266,1.266,0,0,1-.185.391,1.689,1.689,0,0,1-.137.175c-.025.028-.05.055-.077.081s-.057.055-.056.055h0s0,.006-.006.006a.033.033,0,0,1-.015-.007l-.126-.063a3.236,3.236,0,0,0-1.445-.336c-.105,0-.207,0-.3.014a3.213,3.213,0,0,0-.551.106c.11-.1.226-.21.35-.328a4.481,4.481,0,0,1,1.276-.938c.066-.025.134-.048.2-.071a1.393,1.393,0,0,1,.2-.045,1.255,1.255,0,0,1,.181-.014m.234,1.675h0m-.234-2.77h0a2.365,2.365,0,0,0-.339.025,2.518,2.518,0,0,0-.36.08l-.044.014-.016.005c-.072.025-.145.05-.215.077l-.037.015a5.263,5.263,0,0,0-1.541,1.094l-.056.052-.01.01c-.129.124-.238.226-.331.311a1.095,1.095,0,0,0,1.04,1.86,2.143,2.143,0,0,1,.356-.069c.065-.006.131-.009.2-.009a2.163,2.163,0,0,1,.957.221l.07.035.034.017a1.116,1.116,0,0,0,.526.133,1.1,1.1,0,0,0,.811-.358l.029-.028c.04-.04.079-.082.115-.123a2.782,2.782,0,0,0,.224-.286,2.336,2.336,0,0,0,.337-.721,2.005,2.005,0,0,0,.033-.906,1.818,1.818,0,0,0-.427-.876,1.691,1.691,0,0,0-.868-.516,2.016,2.016,0,0,0-.481-.057Z" transform="translate(-558.87 -499.022)"/>
        </g>
        <path id="Union_4" data-name="Union 4" d="M361.932-94.586a7.09,7.09,0,0,1-2.223-.484,3.885,3.885,0,0,1-1.8-1.448,3.845,3.845,0,0,1-.634-1.94,3.79,3.79,0,0,1,.316-1.694,4.1,4.1,0,0,1,.6-.973,3.4,3.4,0,0,1-.513-.414,5.065,5.065,0,0,1-.686-.833l-.01-.014a14.151,14.151,0,0,1-1.551-3.243l0-.007a10.011,10.011,0,0,1-.415-1.626,3.661,3.661,0,0,1,.15-1.848,2.728,2.728,0,0,1,1.248-1.425,3.553,3.553,0,0,1,1.48-.427c.088-.006.178-.01.267-.01a4.208,4.208,0,0,1,1.018.131l.009,0a6.077,6.077,0,0,1,.807.271,1.127,1.127,0,0,1,.165-.013l.058,0a1.1,1.1,0,0,1,.272-.2l.042-.022.02-.01.038-.02c.084-.043.193-.112.308-.185l.01-.005c.074-.049.147-.1.218-.156a16.712,16.712,0,0,1-3.361-1.84,9.4,9.4,0,0,1-1.042-.854,5.892,5.892,0,0,1-.983-1.208,4.993,4.993,0,0,1-.614-1.593,6.574,6.574,0,0,1-.107-1.725v-.01a8.781,8.781,0,0,1,.291-1.724c.011-.04.021-.079.031-.119.022-.086.047-.185.077-.288,0-.01.006-.02.01-.03l.12-.369c.068-.226.151-.436.225-.621l.082-.208a.238.238,0,0,1,.009-.022,15.979,15.979,0,0,1,1.8-3.185,29.472,29.472,0,0,1,2.269-2.762c.381-.418.76-.816,1.153-1.225l.556-.572a3.152,3.152,0,0,1,.821-.665,1.726,1.726,0,0,1,.72-.193c.022,0,.046,0,.068,0a1.592,1.592,0,0,1,.342.037l.021.005.02,0c.027.006.053.014.079.022a1.175,1.175,0,0,1,.16.066l.023.013a1.17,1.17,0,0,1,.152.1,1.1,1.1,0,0,1,.431.994l0,.009,0,.024v.009c0,.024-.007.048-.012.072l-.017.086-.065.325-.007.034c-.087.447-.179.923-.26,1.383-.167.93-.283,1.734-.357,2.462a19.762,19.762,0,0,0-.11,2c0,.291.007.565.024.8,0,.011,0,.022,0,.033.008.193.027.379.046.559l.01.094c.051.419.1.662.124.792a.942.942,0,0,1,.022.149,5.791,5.791,0,0,0,.68.3,5.6,5.6,0,0,0,.994.25l.048.006c.14.017.273.034.371.036h.017l.083,0,.1,0,.2-.005a2.259,2.259,0,0,0,.458-.06,1.09,1.09,0,0,1,.311-.045,1.1,1.1,0,0,1,.458.1l.112-.033a3.282,3.282,0,0,1,.872-.116c.1,0,.2,0,.3.012.238.018.471.055.695.09.094.014.188.03.284.043a3.513,3.513,0,0,0,.386.038h.058a2.6,2.6,0,0,0,.314-.016l.016,0a7.186,7.186,0,0,0,1.553-.44l.3-.107a9.774,9.774,0,0,1,1.174-.351,8.8,8.8,0,0,1,1.265-.191c.221-.017.447-.025.67-.025a8.671,8.671,0,0,1,1.842.2,8.953,8.953,0,0,1,1.151.333l.005,0c.294.109.573.229.842.344l.16.068c.237.1.548.23.845.325a3.37,3.37,0,0,0,.719.15c.068,0,.137.006.207.006a6.238,6.238,0,0,0,1.034-.115l.213-.036a7.642,7.642,0,0,1,1.286-.136c.108,0,.212,0,.313.012a3.717,3.717,0,0,1,1.359.35l.005,0a2.975,2.975,0,0,1,.537.342c.5-.158,1.045-.329,1.606-.51.315-.1.681-.226,1.043-.382a4.252,4.252,0,0,0,.958-.553,3.475,3.475,0,0,0,.767-.882l.006-.008a7.5,7.5,0,0,0,.622-1.291c.2-.516.382-1.061.559-1.585.217-.646.372-1.179.489-1.675a8.566,8.566,0,0,0,.249-1.722l0-.225v-.054l-.005-.173c0-.009,0-.018,0-.028,0-.068-.009-.161-.019-.259-.005-.052-.011-.1-.015-.157,0-.023-.008-.058-.014-.1s-.011-.065-.015-.1-.009-.052-.013-.078l-.013-.075-.008-.032-.023-.1c-.005-.023-.01-.049-.014-.073a1.1,1.1,0,0,1,.126-.715,1.1,1.1,0,0,1,.655-.518l.013,0,.081-.019.015,0a1.436,1.436,0,0,1,.189-.029c.036,0,.072-.007.107-.008h.063a1.9,1.9,0,0,1,.367.034,2.126,2.126,0,0,1,.768.311,2.1,2.1,0,0,1,.319.254l.009.009a2.678,2.678,0,0,1,.248.283l.013.017a3.3,3.3,0,0,1,.35.6,7.743,7.743,0,0,1,.34.97l.04.131.005.019c.083.289.19.673.284,1.072a28.47,28.47,0,0,1,.662,4.278,23.953,23.953,0,0,1,.053,4.058,11.967,11.967,0,0,1-.878,3.7,8.739,8.739,0,0,1-1.9,2.835,6.9,6.9,0,0,1-2.468,1.563,6.2,6.2,0,0,1-.676.209,6.86,6.86,0,0,1,.435,1.251,11.291,11.291,0,0,1,.265,1.576c.039.366.059.739.082,1.133.012.2.023.4.038.609a12.021,12.021,0,0,0,.225,1.778l0,.006a4.918,4.918,0,0,0,.258.838l0,.007c.022.058.047.117.068.159l.011.022.06.124.02.04.02.036c.013.023.024.047.035.071l0,.007a1.094,1.094,0,0,1-.159,1.153,1.1,1.1,0,0,1-.839.392,1.074,1.074,0,0,1-.25-.03l-.219-.036c-.266-.045-.582-.1-.9-.158-.7-.131-1.309-.267-1.869-.418a12.755,12.755,0,0,1-2.74-1.062c-.084-.045-.167-.09-.247-.137a9.137,9.137,0,0,1-.645.849c-.085.1-.168.193-.243.27-.031.033-.064.066-.1.1l-.029.032c-.125.128-.256.248-.382.366l-.008.007-.026.023a9.267,9.267,0,0,1-.965.748,9.231,9.231,0,0,1-2.529,1.179l-.01,0a10.522,10.522,0,0,1-2.727.391l-.2,0c-.348,0-.677-.021-.983-.041l-.026,0c-.4-.037-.733-.077-1.02-.124-.495-.079-.914-.167-1.259-.242a1.1,1.1,0,0,1-.384-.165,6.359,6.359,0,0,0-.769.465,4.927,4.927,0,0,0-.545.451l-.018.017a1.1,1.1,0,0,1-.177.141l0,.011A6.048,6.048,0,0,1,372-97.106a2.826,2.826,0,0,1-.628.914,3.382,3.382,0,0,1-.923.623l-.006,0a7.8,7.8,0,0,1-1.98.529,34.224,34.224,0,0,1-4.269.491c-.283.011-.564.016-.834.016C362.867-94.531,362.385-94.549,361.932-94.586Zm-3.559-3.925a2.767,2.767,0,0,0,.455,1.391,2.8,2.8,0,0,0,1.3,1.039,6.143,6.143,0,0,0,1.89.4q.532.043,1.086.049-.553-.007-1.086-.049a6.143,6.143,0,0,1-1.89-.4,2.807,2.807,0,0,1-1.3-1.039,2.767,2.767,0,0,1-.455-1.391c0-.042,0-.085,0-.127C358.37-98.6,358.371-98.553,358.374-98.51Zm8.424-.176a11.125,11.125,0,0,1-2.714.34l-.257,0A11.072,11.072,0,0,0,366.8-98.687Zm-8.2-1.027a2.77,2.77,0,0,0-.207.738,2.742,2.742,0,0,1,.208-.738,3,3,0,0,1,.446-.719A3,3,0,0,0,358.6-99.714Zm2.246.723a2.6,2.6,0,0,1-.855-.773A2.587,2.587,0,0,0,360.845-98.991Zm1.037-2.475-.065.006-.061.011-.055.01c-.056.014-.106.027-.139.038a2.777,2.777,0,0,0-.338.148l-.165.085c-.112.059-.226.118-.344.174a.926.926,0,0,1,0,.1.4.4,0,0,0,.007.113,1.009,1.009,0,0,0,.172.394l.006.01a1.522,1.522,0,0,0,.518.449,3.394,3.394,0,0,0,1.016.343l.008,0c.19.037.4.067.67.093l.026,0c.1.013.222.02.339.027h.018c.109.008.221.013.346.014h.013l.23,0a10.045,10.045,0,0,0,1.909-.187,9.1,9.1,0,0,1-1.813-.954l-.03-.019,0,0a6.058,6.058,0,0,0-1.6-.788l-.018-.005a2.477,2.477,0,0,0-.342-.064c-.069-.005-.14-.009-.2-.009A.857.857,0,0,0,361.882-101.466ZM375.656-99.9c.109.018.221.034.338.049-.117-.015-.229-.032-.338-.049-.486-.077-.89-.163-1.2-.23C374.765-100.065,375.169-99.979,375.656-99.9Zm-1.2-.23Zm0,0a10.638,10.638,0,0,0,1.594-.671A10.745,10.745,0,0,1,374.457-100.132Zm-11.624-2.317a6.95,6.95,0,0,1,1.9.922,7.689,7.689,0,0,0,1.743.906,7.689,7.689,0,0,1-1.743-.906,6.95,6.95,0,0,0-1.9-.922,3.616,3.616,0,0,0-.533-.1A3.616,3.616,0,0,1,362.832-102.45Zm13.225,1.621c0-.022-.039-.04-.1-.05C376.018-100.868,376.053-100.851,376.057-100.829Zm-.826-.011.2-.028C375.366-100.86,375.3-100.85,375.231-100.84Zm.2-.028h0Zm-15.924-.926h0a1.31,1.31,0,0,0,.387-.052,1.328,1.328,0,0,1-.39.052l-.024,0Zm32.017-.1.041.006h0l.006,0,.019,0-.019,0-.006,0h0l-.041-.006-.217-.036Zm-7.948-.247c-.075.076-.154.152-.235.229.082-.077.161-.153.236-.229s.139-.147.205-.218C383.715-102.288,383.643-102.217,383.575-102.141Zm.582-2.8a7.731,7.731,0,0,0,1.979,1.487,11.782,11.782,0,0,0,2.509.969c.6.16,1.193.288,1.782.4-.59-.11-1.186-.238-1.782-.4a11.782,11.782,0,0,1-2.509-.969,7.731,7.731,0,0,1-1.979-1.487,5.33,5.33,0,0,1-1.507-3.58A5.33,5.33,0,0,0,384.157-104.939Zm7.311,2.808a2.74,2.74,0,0,1-.112-.254A2.522,2.522,0,0,0,391.468-102.131Zm-.427-1.274a6.01,6.01,0,0,0,.315,1.021,6.019,6.019,0,0,1-.315-1.021,12.22,12.22,0,0,1-.236-1.766A12.248,12.248,0,0,0,391.041-103.406Zm-33.135.424.03.044-.03-.044a13.162,13.162,0,0,1-1.43-2.993A13.162,13.162,0,0,0,357.906-102.982Zm17.734-.279h0c-.042,0-.086-.056-.137-.15C375.552-103.313,375.6-103.256,375.64-103.261Zm-4.235-1.425c-.16.413-.333.834-.53,1.249.2-.414.37-.836.53-1.248a6.557,6.557,0,0,0,.364-1.26A6.533,6.533,0,0,1,371.4-104.685Zm-9.181,1.049h-.006c-.023,0-.049-.019-.077-.055C362.17-103.652,362.2-103.633,362.224-103.637Zm13.145-.035-.009-.019Zm-.246-.458c.084.14.155.272.212.39-.058-.118-.129-.249-.211-.39a4.744,4.744,0,0,0-.323-.458A4.573,4.573,0,0,1,375.124-104.13Zm-.461-1.31a2.7,2.7,0,0,1,.525.481,2.718,2.718,0,0,1,.374.606c.011.025.021.05.031.076-.01-.025-.02-.05-.031-.076a2.718,2.718,0,0,0-.374-.606,2.7,2.7,0,0,0-.525-.481,2.172,2.172,0,0,0-.517-.263A2.172,2.172,0,0,1,374.663-105.44Zm9.133.835a5.9,5.9,0,0,1-1.225-2.024A5.89,5.89,0,0,0,383.8-104.605Zm-9.708-.476c.005,0,.007.011.007.023,0-.013,0-.021-.007-.023h0Zm-5.037-.187s-.008,0-.012-.006S369.046-105.269,369.05-105.269Zm.058-.046.186-.149Zm-3.085-.41a.924.924,0,0,1-.342.175h-.011C365.705-105.539,365.834-105.593,366.023-105.725Zm-.127-.155.016-.019C365.906-105.892,365.9-105.886,365.9-105.88Zm3.951-.249a1.714,1.714,0,0,0,.129-.324A1.738,1.738,0,0,1,369.847-106.129Zm-7.282-.22c.163-.2.309-.309.383-.309C362.873-106.658,362.728-106.553,362.565-106.349Zm7.411-.1a1.383,1.383,0,0,0,.052-.386A1.387,1.387,0,0,1,369.976-106.453Zm.278-2.645a2.587,2.587,0,0,1,.669.227,2.33,2.33,0,0,1,.611.44,2.333,2.333,0,0,1,.446.65,3.127,3.127,0,0,1,.277,1.292,3.127,3.127,0,0,0-.277-1.292,2.333,2.333,0,0,0-.446-.65,2.33,2.33,0,0,0-.611-.44,2.613,2.613,0,0,0-.669-.228,3.529,3.529,0,0,0-.653-.071A3.456,3.456,0,0,1,370.254-109.1Zm-1.8,2.2c-.045.022-.089.044-.133.07a4.023,4.023,0,0,1,.548.2.567.567,0,0,0,.049-.119l0-.01a.331.331,0,0,0,0-.149.171.171,0,0,0-.031-.075l-.005,0a.444.444,0,0,0-.085-.009A.871.871,0,0,0,368.456-106.9Zm-5.476.247a.051.051,0,0,0-.032-.009A.055.055,0,0,1,362.98-106.649Zm-3.073-.212-.08-.032Zm-.363-.127a3.915,3.915,0,0,0-.587-.131A4.029,4.029,0,0,1,359.545-106.988Zm-1.615-.165c-.434.035-.728.106-.847.106a.142.142,0,0,1-.045-.005C357.107-107.02,357.423-107.111,357.93-107.152Zm-.913.089c-.033,0-.071-.005-.121-.013C356.945-107.069,356.984-107.065,357.017-107.063Zm12.685-.654a1.24,1.24,0,0,1,.3.607c0,.007,0,.014,0,.021s0-.013,0-.021a1.24,1.24,0,0,0-.3-.607,1.105,1.105,0,0,0-.585-.334A1.108,1.108,0,0,1,369.7-107.717Zm-10.733-1.155a3.588,3.588,0,0,1,.9.515,2.036,2.036,0,0,1,.535.659c.017.032.03.063.045.1s.041.11.06.164a1.562,1.562,0,0,1,.061.32,1.562,1.562,0,0,0-.061-.32c-.02-.054-.04-.115-.06-.164s-.028-.066-.045-.1a2.036,2.036,0,0,0-.535-.659,3.588,3.588,0,0,0-.9-.515,3.393,3.393,0,0,0-.925-.27A3.393,3.393,0,0,1,358.969-108.872Zm-.011,1.753-.055-.008Zm-2.328-.152c0-.034-.008-.069-.014-.105Zm-.014-.105c0-.04-.009-.083-.014-.127Zm-.513-.047a3.487,3.487,0,0,1-.04-.515A3.487,3.487,0,0,0,356.1-107.423Zm11.888-.464a1.963,1.963,0,0,1,.814-.2h0A1.959,1.959,0,0,0,367.991-107.888Zm-2.309-.321-.135,0h-.022Q365.6-108.2,365.683-108.209Zm11.245-.175a4.291,4.291,0,0,0,1.624-.438,4.292,4.292,0,0,1-1.625.438q-.135.008-.27.008a4.106,4.106,0,0,1-2.1-.56A4.138,4.138,0,0,0,376.927-108.383Zm13.512-.09a5.6,5.6,0,0,0-.507-1.337h0A5.579,5.579,0,0,1,390.439-108.473Zm-24.291-.014h0a.861.861,0,0,1-.162-.022A.845.845,0,0,0,366.148-108.487Zm.006,0h0Zm.009,0h0Zm.052-.032c0-.073-.282-.284-.777-.522C365.933-108.8,366.215-108.592,366.215-108.519Zm2.265-.239a4.97,4.97,0,0,1,1.108-.073c-.077,0-.154-.006-.229-.006A5.167,5.167,0,0,0,368.48-108.758Zm.446-.377a4.836,4.836,0,0,1,.581-.036h0A4.829,4.829,0,0,0,368.925-109.135Zm6.32-2.774a6,6,0,0,0-.761.152c-.148.04-.3.085-.441.128l-.254.076a2.779,2.779,0,0,0,.293.66,3.049,3.049,0,0,0,1.031,1.016l.008,0a3,3,0,0,0,1.535.4c.068,0,.135,0,.2-.006a3.174,3.174,0,0,0,1.342-.4c-.064.01-.127.022-.19.034a2.537,2.537,0,0,1-.717.06c-.252-.017-.562-.436-.792-.436-.354,0-.925-1.7-1.239-1.7Zm-16.322,2.132a3.165,3.165,0,0,0-.757-.1l-.1,0c.033,0,.066,0,.1,0A3.166,3.166,0,0,1,358.923-109.777Zm4.406-.5c.12.019.237.04.353.061a1.1,1.1,0,0,1,.563-.293c.062-.012.129-.026.2-.045s.18-.049.312-.1a2.037,2.037,0,0,1-.579-.454,2.016,2.016,0,0,1-.331-.532c-.13.172-.276.358-.441.551a1.094,1.094,0,0,1-.833.384,1.074,1.074,0,0,1-.271-.034c-.108.1-.217.2-.326.284C362.389-110.41,362.849-110.356,363.329-110.273Zm16.047-.289c.027.017.049.022.061-.017h-.007A.106.106,0,0,0,379.376-110.562Zm11.988-.663a5.734,5.734,0,0,0,1.984-1.226A5.743,5.743,0,0,1,391.364-111.226Zm-7.991-.459a1.558,1.558,0,0,0-.126-.654A1.558,1.558,0,0,1,383.373-111.685ZM356.2-116.891a3.885,3.885,0,0,0,.479,1.249,4.777,4.777,0,0,0,.8.981,8.42,8.42,0,0,0,.925.757,15.58,15.58,0,0,0,3.207,1.745c.137.055.265.105.381.149-.116-.044-.244-.094-.381-.149a15.58,15.58,0,0,1-3.207-1.745,8.42,8.42,0,0,1-.925-.757,4.777,4.777,0,0,1-.8-.981,3.885,3.885,0,0,1-.479-1.249,5.052,5.052,0,0,1-.1-1.021A5.052,5.052,0,0,0,356.2-116.891Zm15.676,4.834a1.863,1.863,0,0,1-.888-.454A1.863,1.863,0,0,0,371.88-112.057Zm-7.067-.133,0,.01c.169-.032.321-.064.262-.086-.2-.076.376-.127.218-.167a2.5,2.5,0,0,0-.483-.069h-.022A.821.821,0,0,0,364.813-112.19Zm3.469-.076c.034,0,.068-.005.1-.01Zm14.855-.067c-.041-.15-.079-.227-.061-.238h0C383.058-112.56,383.1-112.484,383.137-112.334Zm-10.825-.062a2.776,2.776,0,0,0,.407-.032,2.64,2.64,0,0,1-.56.026C372.209-112.4,372.261-112.4,372.312-112.4Zm-1.455-.936a.986.986,0,0,0,.178.406,1.446,1.446,0,0,0,.957.506,1.446,1.446,0,0,1-.957-.506.986.986,0,0,1-.178-.406,1.091,1.091,0,0,1-.022-.225A1.091,1.091,0,0,0,370.857-113.332Zm9.333.656h0a2.526,2.526,0,0,0,.606-.065A2.556,2.556,0,0,1,380.19-112.675Zm-10.52-.386a1.359,1.359,0,0,1-.283.348,1.394,1.394,0,0,0,.283-.347,1.228,1.228,0,0,0,.121-.313A1.185,1.185,0,0,1,369.67-113.062Zm7.387.022c.673.046,1.361.143,2.056.252l.13.021-.13-.021c-.7-.109-1.383-.206-2.056-.252-.156-.011-.311-.018-.464-.023C376.746-113.057,376.9-113.049,377.057-113.039Zm-11.492-.455a5.81,5.81,0,0,1,.644.206c.406.154.773.317,1.127.427-.354-.11-.72-.273-1.127-.427a5.81,5.81,0,0,0-.644-.206,3.594,3.594,0,0,0-.664-.1h0A3.592,3.592,0,0,1,365.565-113.494Zm4.162-.629a1.112,1.112,0,0,1,.1.468,1.112,1.112,0,0,0-.1-.468.755.755,0,0,0-.257-.322A.755.755,0,0,1,369.726-114.124Zm11.917.4a1.333,1.333,0,0,0-.045-.336A1.333,1.333,0,0,1,381.643-113.726Zm-12.112-.328a.94.94,0,0,1,.027.225.947.947,0,0,0-.027-.226.928.928,0,0,0-.121-.289A.925.925,0,0,1,369.531-114.053Zm1.68-.3v0a.009.009,0,0,0,0,0Zm5.082-.582c-.009,0-.013-.008-.013-.013S376.285-114.941,376.294-114.936Zm4.478-.608a2.51,2.51,0,0,1,.411.194,2.028,2.028,0,0,1,.2.134,2.063,2.063,0,0,1,.182.163c.029.029.057.059.084.09-.027-.031-.055-.061-.084-.09a2.063,2.063,0,0,0-.182-.163,2.028,2.028,0,0,0-.2-.134,2.51,2.51,0,0,0-.411-.194,2.979,2.979,0,0,0-.668-.148A2.99,2.99,0,0,1,380.771-115.545Zm-3.719.388c.231-.06.509-.142.835-.235C377.562-115.3,377.283-115.218,377.052-115.157Zm-10.544-.371a1.3,1.3,0,0,1-.214-.042A1.3,1.3,0,0,0,366.508-115.528Zm.041-.016c0-.025-.066-.082-.2-.159C366.483-115.626,366.549-115.569,366.549-115.544Zm14.971-2.767-.152,0-.164,0C381.312-118.307,381.417-118.308,381.521-118.31Zm-1.407-.205a4.626,4.626,0,0,0,.874.189,4.582,4.582,0,0,1-.875-.19q-.2-.065-.408-.142C379.841-118.607,379.977-118.559,380.114-118.516Zm15.781.124a23.138,23.138,0,0,0-.053-3.871A23.236,23.236,0,0,1,395.9-118.391Zm-13.1-.084a5.5,5.5,0,0,1,1.336-.112c-.075-.006-.151-.01-.23-.01A6.709,6.709,0,0,0,382.8-118.475Zm-12.035-.154c-.095.013-.189.02-.283.023.095,0,.188-.011.283-.022a6.575,6.575,0,0,0,1.413-.36A6.528,6.528,0,0,1,370.761-118.629Zm-1.049-.022c-.327-.047-.627-.105-.911-.126C369.084-118.757,369.385-118.7,369.712-118.652Zm-1.471-.108a2.242,2.242,0,0,1,.42-.026l-.072,0a2.222,2.222,0,0,0-.348.027Zm20.964-.116a5.46,5.46,0,0,0,1.165-.671A5.5,5.5,0,0,1,389.205-118.875Zm-10.039,0c-.314-.133-.629-.273-.951-.392C378.537-119.151,378.852-119.012,379.166-118.879Zm-2.231-.737a7.548,7.548,0,0,0-1.339-.12q-.292,0-.586.022c.2-.014.391-.022.584-.022A7.56,7.56,0,0,1,376.935-119.616Zm-14.146-.618c-.117-.067-.226-.132-.326-.193C362.563-120.367,362.672-120.3,362.789-120.235Zm-.206-1.637c.01.235.032.45.053.647-.021-.2-.043-.412-.052-.647s-.023-.486-.027-.754C362.561-122.358,362.566-122.106,362.583-121.872Zm30.65-3.75c-.121.51-.265,1-.418,1.473.152-.472.3-.962.418-1.472a10.723,10.723,0,0,0,.25-1.481A10.689,10.689,0,0,1,393.233-125.622Zm1.139-3.154a2.1,2.1,0,0,1,.232.4,8.065,8.065,0,0,1,.33.968,8.071,8.071,0,0,0-.329-.968,2.2,2.2,0,0,0-.232-.4,1.628,1.628,0,0,0-.145-.167A1.52,1.52,0,0,1,394.372-128.776Zm-.989-.337c.022.085.032.173.048.259s.03.173.039.259c.014.173.039.345.04.517,0-.172-.025-.344-.04-.517-.009-.086-.026-.173-.039-.259s-.025-.174-.048-.259l-.023-.1Zm.305-.113a.505.505,0,0,0-.063-.009C393.646-129.234,393.667-129.23,393.688-129.227Zm-30.454-.068h.022a.383.383,0,0,1,.057,0,.378.378,0,0,0-.056,0Z" transform="translate(-335.968 158)" fill="#2c141f" stroke="rgba(0,0,0,0)" stroke-miterlimit="10" stroke-width="1"/>
        <g id="Group_84" data-name="Group 84" transform="translate(23.935 43.688)">
          <path id="Path_138" data-name="Path 138" d="M524.482,462.73c-.073.135-.164.27-.259.413a5.929,5.929,0,0,1-1.591,1.555c-.145.092-.282.18-.418.249-.032.018-.063.033-.1.049a7.785,7.785,0,0,1,.981-.037,9.485,9.485,0,0,1,1.257.121c.266.046.521.1.764.165.268-.157.929-.418,1.676-.865h-.006a1.906,1.906,0,0,1-.732-.144,1.977,1.977,0,0,1-1.188-1.361,1.9,1.9,0,0,1-.043-.744,1.3,1.3,0,0,1,.153-.471c.009-.015.018-.026.027-.039-.037-.011-.074-.023-.11-.038a1.9,1.9,0,0,1-.223.771A3.97,3.97,0,0,1,524.482,462.73Z" transform="translate(-521.023 -460.488)" fill="#363636"/>
        </g>
        <g id="Group_85" data-name="Group 85" transform="translate(22.724 53.106)">
          <path id="Path_140" data-name="Path 140" d="M515.984,542.7a6.951,6.951,0,0,1-1.839-.054,7.405,7.405,0,0,1-.99-.226c-.15-.044-.289-.094-.42-.142a1.933,1.933,0,0,1-.375-.182,1.019,1.019,0,0,1-.2-.164,1.805,1.805,0,0,0,.056.219,2.276,2.276,0,0,0,1.214,1.335,6.644,6.644,0,0,0,2.776.464,11.474,11.474,0,0,0,3.457-.54,11.087,11.087,0,0,0,3.125-1.569,11.912,11.912,0,0,0,2.107-1.952c.273-.321.5-.625.694-.9-.032.02-.064.039-.1.058a4.879,4.879,0,0,1-1.405.552,2.231,2.231,0,0,1-.444.053c-.039.082-.076.164-.117.246a6.867,6.867,0,0,1-1.058,1.575,4.365,4.365,0,0,1-1.663,1.138,3.271,3.271,0,0,1-1.04.212,3.18,3.18,0,0,1-1.071-.148,8.059,8.059,0,0,1-1.871-.962c-.292-.183-.573-.359-.865-.507a4.6,4.6,0,0,0-.888-.354,3.035,3.035,0,0,0-.451-.088,2.269,2.269,0,0,0-.443,0,2.2,2.2,0,0,0-.839.266,5.322,5.322,0,0,1-.925.412,1.677,1.677,0,0,1-.25.052l.01.013a.8.8,0,0,0,.362.256,2.382,2.382,0,0,0,.327.092l.413.089c.292.061.612.122.951.175a14.851,14.851,0,0,1,2.5.356C516.733,542.548,516.453,542.646,515.984,542.7Z" transform="translate(-511.07 -537.899)"/>
          <path id="Path_141" data-name="Path 141" d="M517.689,531.089c-.192.273-.421.576-.694.9a11.907,11.907,0,0,1-2.107,1.952,11.088,11.088,0,0,1-3.125,1.569,11.473,11.473,0,0,1-3.457.54,6.643,6.643,0,0,1-2.775-.464,2.275,2.275,0,0,1-1.214-1.335,1.8,1.8,0,0,1-.056-.219,1.031,1.031,0,0,0,.2.164,1.939,1.939,0,0,0,.375.182c.131.048.27.1.42.142a7.4,7.4,0,0,0,.99.226,7.321,7.321,0,0,0,1.148.092,6.037,6.037,0,0,0,.691-.038c.469-.056.749-.154.742-.226a14.835,14.835,0,0,0-2.5-.355c-.339-.054-.659-.114-.951-.175l-.413-.089a2.409,2.409,0,0,1-.327-.092.8.8,0,0,1-.363-.256l-.009-.013a1.671,1.671,0,0,0,.25-.052,5.325,5.325,0,0,0,.925-.412,2.2,2.2,0,0,1,.839-.266,1.454,1.454,0,0,1,.176-.01c.088,0,.178.006.267.013a3.073,3.073,0,0,1,.451.088,4.606,4.606,0,0,1,.888.354c.292.147.573.324.865.507a8.056,8.056,0,0,0,1.871.962,3.216,3.216,0,0,0,.956.151l.115,0a3.271,3.271,0,0,0,1.04-.212,4.365,4.365,0,0,0,1.664-1.138A6.863,6.863,0,0,0,515.626,532c.041-.082.079-.164.118-.246h.008a2.26,2.26,0,0,0,.436-.053,4.878,4.878,0,0,0,1.405-.552l.1-.058m0-1.095a1.092,1.092,0,0,0-.564.157l-.037.022-.039.023a3.851,3.851,0,0,1-1.078.43,1.28,1.28,0,0,1-.22.031h-.007a1.1,1.1,0,0,0-.991.627l-.029.063c-.025.053-.05.107-.077.16a5.746,5.746,0,0,1-.883,1.321,3.252,3.252,0,0,1-1.239.854,2.185,2.185,0,0,1-.694.144h-.012l-.07,0a2.135,2.135,0,0,1-.629-.1,6.719,6.719,0,0,1-1.527-.788l-.092-.057,0,0c-.3-.189-.613-.384-.948-.553a5.656,5.656,0,0,0-1.087-.431,4.1,4.1,0,0,0-.6-.118l-.067-.007c-.107-.008-.223-.016-.348-.016a2.5,2.5,0,0,0-.284.015,3.3,3.3,0,0,0-1.221.377l-.2.1a3.052,3.052,0,0,1-.535.237l-.01,0a.585.585,0,0,1-.085.017,1.707,1.707,0,0,0-.932,1.731,2.842,2.842,0,0,0,.087.342,3.386,3.386,0,0,0,1.782,1.991,7.483,7.483,0,0,0,3.245.573h.007a12.637,12.637,0,0,0,3.79-.592,12.252,12.252,0,0,0,3.433-1.724,12.973,12.973,0,0,0,2.3-2.132c.263-.309.51-.628.754-.976a1.095,1.095,0,0,0-.9-1.726Z" transform="translate(-503.165 -529.994)"/>
        </g>
        <path id="Path_148" data-name="Path 148" d="M564.147,466.936a2.507,2.507,0,0,1,.244.187,16.426,16.426,0,0,0,1.238-1.114,3.5,3.5,0,0,1-.771-.129c-.339-.091-.669-.223-1-.347-.017.064-.051.145-.08.243a.974.974,0,0,0,.37,1.159Z" transform="translate(-533.628 -420.27)" fill="#2e1624"/>
        <path id="Path_149" data-name="Path 149" d="M491.181,500.208s0,0,0,0-.02-.045-.033-.067a1.571,1.571,0,0,0-.4-.485,3.359,3.359,0,0,0-.766-.448,3.206,3.206,0,0,0-.784-.262.963.963,0,0,0-.634.075.792.792,0,0,0-.343.429,2.177,2.177,0,0,0-.111.524q-.011.12-.02.224l-.009.067,0,.031c0,.011,0,.023.005.025l.085.054c.039.021.076.042.1.06l.035.025a2.314,2.314,0,0,1,.821-.328,3.768,3.768,0,0,1,1.1-.081,3.837,3.837,0,0,1,.665.1c.057.015.116.026.173.045l.087.027.027.008h.019s0-.013-.005-.015Z" transform="translate(-467.182 -449.597)" fill="#2e1423"/>
        <path id="Path_150" data-name="Path 150" d="M646.335,468.527a1.593,1.593,0,0,0,1.033.364,2.4,2.4,0,0,0,1.12-.315,1.921,1.921,0,0,0,.721-.607.923.923,0,0,0,.141-.58c-.157-.019-.312-.042-.464-.067a19.594,19.594,0,0,0-2.841-.3c-.013.029-.027.063-.041.1a1.317,1.317,0,0,0-.082.628A1.163,1.163,0,0,0,646.335,468.527Z" transform="translate(-605.822 -421.582)" fill="#2e1624"/>
        <path id="Path_151" data-name="Path 151" d="M570.169,509.635l.126.063c.021.013.018,0,.021,0s.032-.03.054-.054.052-.054.077-.081a1.669,1.669,0,0,0,.137-.175,1.264,1.264,0,0,0,.185-.391.9.9,0,0,0,.014-.414.733.733,0,0,0-.168-.353.592.592,0,0,0-.311-.182,1.064,1.064,0,0,0-.4-.012,1.424,1.424,0,0,0-.2.045c-.068.023-.136.047-.2.072a4.478,4.478,0,0,0-1.276.938c-.123.118-.24.228-.35.328a3.2,3.2,0,0,1,.551-.106A3.262,3.262,0,0,1,570.169,509.635Z" transform="translate(-537.274 -457.59)" fill="#2e1423"/>
        <path id="Path_152" data-name="Path 152" d="M482.472,343.084a4.765,4.765,0,0,0,.8.981,8.35,8.35,0,0,0,.925.757,15.588,15.588,0,0,0,3.206,1.745c.419.169.745.286.96.367.611-.716.969-1.349,1.126-1.457a1.249,1.249,0,0,1-.274-.167,1.265,1.265,0,0,1-.424-.642,1.526,1.526,0,0,1-.035-.707,1.472,1.472,0,0,1,.266-.617,1.746,1.746,0,0,1,.45-.418,2.139,2.139,0,0,1,1-.326,2.533,2.533,0,0,1,.641.04,7.026,7.026,0,0,1,.272-.672,6.461,6.461,0,0,1,.518-.93,3.9,3.9,0,0,1,1-1.033l.026-.017a3.233,3.233,0,0,1-.728.1l-.227.006c-.079,0-.161-.005-.247-.009-.171,0-.352-.029-.543-.052a6.733,6.733,0,0,1-1.212-.3,6.823,6.823,0,0,1-1.129-.535c-.163-.1-.318-.2-.453-.3a4.342,4.342,0,0,1-.37-.3c-.434-.385-.631-.689-.583-.737s.341.145.808.434c.1.061.209.128.326.193-.049-.221-.1-.526-.144-.907-.022-.219-.051-.462-.062-.73s-.023-.558-.027-.871a21,21,0,0,1,.116-2.119c.08-.782.206-1.633.368-2.54.08-.454.17-.921.264-1.4l.072-.363.017-.086v-.019l-.008-.005-.009,0-.019,0a.494.494,0,0,0-.126-.01.635.635,0,0,0-.266.073,2.226,2.226,0,0,0-.534.452l-.557.574c-.373.388-.753.785-1.128,1.2a27.952,27.952,0,0,0-2.185,2.658,15.01,15.01,0,0,0-1.681,2.965c-.1.257-.208.506-.284.765l-.124.382c-.038.128-.067.257-.1.385a7.648,7.648,0,0,0-.256,1.514,5.479,5.479,0,0,0,.087,1.437A3.9,3.9,0,0,0,482.472,343.084Z" transform="translate(-461.757 -300.726)" fill="url(#linear-gradient)"/>
        <path id="Path_153" data-name="Path 153" d="M549.017,462.694a.732.732,0,0,1,.159-.131,3.728,3.728,0,0,0-1.126-.24,6.23,6.23,0,0,1-.691-.058l-.079-.015c.008.108,0,.273.026.478a2.036,2.036,0,0,0,1.626,1.863c.173.043.32.063.425.082l.1-.068c.091-.062.179-.125.265-.189a.779.779,0,0,1-.158-.017.979.979,0,0,1-.418-.209,1.051,1.051,0,0,1-.346-1.084A.981.981,0,0,1,549.017,462.694Z" transform="translate(-519.188 -417.386)" fill="#fff" stroke="rgba(0,0,0,0)" stroke-width="1"/>
        <path id="Path_154" data-name="Path 154" d="M524.482,462.73c-.073.135-.164.27-.259.413a5.929,5.929,0,0,1-1.591,1.555c-.145.092-.282.18-.418.249-.032.018-.063.033-.1.049a7.785,7.785,0,0,1,.981-.037,9.485,9.485,0,0,1,1.257.121c.266.046.521.1.764.165.268-.157.929-.418,1.676-.865h-.006a1.906,1.906,0,0,1-.732-.144,1.977,1.977,0,0,1-1.188-1.361,1.9,1.9,0,0,1-.043-.744,1.3,1.3,0,0,1,.153-.471c.009-.015.018-.026.027-.039-.037-.011-.074-.023-.11-.038a1.9,1.9,0,0,1-.223.771A3.97,3.97,0,0,1,524.482,462.73Z" transform="translate(-497.088 -416.8)" fill="#924e42"/>
        <path id="Path_155" data-name="Path 155" d="M515.984,542.7a6.951,6.951,0,0,1-1.839-.054,7.405,7.405,0,0,1-.99-.226c-.15-.044-.289-.094-.42-.142a1.933,1.933,0,0,1-.375-.182,1.019,1.019,0,0,1-.2-.164,1.805,1.805,0,0,0,.056.219,2.276,2.276,0,0,0,1.214,1.335,6.644,6.644,0,0,0,2.776.464,11.474,11.474,0,0,0,3.457-.54,11.087,11.087,0,0,0,3.125-1.569,11.912,11.912,0,0,0,2.107-1.952c.273-.321.5-.625.694-.9-.032.02-.064.039-.1.058a4.879,4.879,0,0,1-1.405.552,2.231,2.231,0,0,1-.444.053c-.039.082-.076.164-.117.246a6.867,6.867,0,0,1-1.058,1.575,4.365,4.365,0,0,1-1.663,1.138,3.271,3.271,0,0,1-1.04.212,3.18,3.18,0,0,1-1.071-.148,8.059,8.059,0,0,1-1.871-.962c-.292-.183-.573-.359-.865-.507a4.6,4.6,0,0,0-.888-.354,3.035,3.035,0,0,0-.451-.088,2.269,2.269,0,0,0-.443,0,2.2,2.2,0,0,0-.839.266,5.322,5.322,0,0,1-.925.412,1.677,1.677,0,0,1-.25.052l.01.013a.8.8,0,0,0,.362.256,2.382,2.382,0,0,0,.327.092l.413.089c.292.061.612.122.951.175a14.851,14.851,0,0,1,2.5.356C516.733,542.548,516.453,542.646,515.984,542.7Z" transform="translate(-488.346 -484.793)" fill="url(#linear-gradient-2)"/>
        <path id="Path_156" data-name="Path 156" d="M517.056,425.806l-.007-.012-.03-.061-.061-.126c-.043-.083-.078-.168-.112-.254a6.117,6.117,0,0,1-.315-1.021,13.03,13.03,0,0,1-.248-1.939c-.042-.61-.061-1.18-.116-1.7a10.262,10.262,0,0,0-.238-1.426,5,5,0,0,0-.838-1.851,2.963,2.963,0,0,0-.2-.247l-.083-.1-.034-.035a3.961,3.961,0,0,1-.975-.222l-.019-.007a2.7,2.7,0,0,1-1.2-.391,5.731,5.731,0,0,1-1.143-.826,5.992,5.992,0,0,1-1.075-1.359,5.668,5.668,0,0,1-.631-1.616,3.54,3.54,0,0,1-.07-.384l-.027-.185c-.006-.061-.009-.122-.013-.181-.006-.12-.017-.231-.016-.345a2.585,2.585,0,0,1,.02-.326,1.45,1.45,0,0,1,.4-.91.632.632,0,0,1,.237-.143c.062-.016.1-.014.1,0s0,.022-.008.038c.175-.077.452-.188.82-.329-.022-.025-.049-.056-.084-.09a1.8,1.8,0,0,0-.507-.369,2.6,2.6,0,0,0-.96-.241,5.478,5.478,0,0,0-1.337.112,7.105,7.105,0,0,1-1.718.156,4.435,4.435,0,0,1-.965-.2c-.318-.1-.634-.229-.947-.363s-.629-.273-.952-.392a7.711,7.711,0,0,0-1.008-.292,7.634,7.634,0,0,0-3.3.016,8.793,8.793,0,0,0-1.048.314,9.6,9.6,0,0,1-2.1.6,3.8,3.8,0,0,1-.537.025,4.835,4.835,0,0,1-.512-.048c-.327-.047-.628-.105-.911-.126a2.244,2.244,0,0,0-.793.068,2.612,2.612,0,0,0-.681.3,3.794,3.794,0,0,0-.969.893,8.277,8.277,0,0,0-.575.852c-.158.267-.277.467-.359.595.034.008.07.015.1.023a3.341,3.341,0,0,1,.583.212c.3.146.453.26.438.292s-.194-.015-.508-.1a5,5,0,0,0-.571-.114,2.658,2.658,0,0,0-.741,0,1.84,1.84,0,0,0-.794.317,1.339,1.339,0,0,0-.317.325,1.011,1.011,0,0,0-.164.426.913.913,0,0,0,.3.856,1.015,1.015,0,0,0,.475.183c.19.031.4.036.635.049a3.59,3.59,0,0,1,.705.1,5.8,5.8,0,0,1,.644.206c.406.154.773.318,1.127.427a2.69,2.69,0,0,0,1,.145,1.55,1.55,0,0,0,.793-.27,1.013,1.013,0,0,0,.4-1.066.939.939,0,0,0-.138-.317c-.045-.069-.074-.108-.062-.124s.06,0,.138.049a.757.757,0,0,1,.258.323,1.155,1.155,0,0,1,.082.657,1.207,1.207,0,0,1-.139.4,1.387,1.387,0,0,1-.307.369,1.878,1.878,0,0,1-.981.415c-.033,0-.067.007-.1.01a3.191,3.191,0,0,1-.3.519,5.357,5.357,0,0,1-.586.693,6.209,6.209,0,0,1-1.824,1.263,5.36,5.36,0,0,1-.855.3c-.1.024-.185.044-.266.059l.017,0a7.66,7.66,0,0,1,.959.376c.53.253.82.476.79.539-.069.142-1.371-.408-3.065-.684-1.39-.24-2.589-.219-2.984-.29h0c.264.158.468.3.62.409.216.157.323.248.314.263s-.137-.045-.371-.172-.573-.322-1.028-.523a5.083,5.083,0,0,0-.774-.27,3.006,3.006,0,0,0-.947-.092,2.441,2.441,0,0,0-1.027.293,1.632,1.632,0,0,0-.754.854,2.608,2.608,0,0,0-.091,1.3,9.069,9.069,0,0,0,.373,1.449,13.144,13.144,0,0,0,1.43,2.992,4.034,4.034,0,0,0,.541.659,2.006,2.006,0,0,0,.679.453,1.362,1.362,0,0,0,.38.077,1.314,1.314,0,0,0,.39-.052,5.019,5.019,0,0,0,.832-.382,3.728,3.728,0,0,1,.482-.209c.087-.029.177-.051.266-.074a2.606,2.606,0,0,1,.274-.041,2.8,2.8,0,0,1,.55,0,3.563,3.563,0,0,1,.533.1,6.968,6.968,0,0,1,1.9.921,7.7,7.7,0,0,0,1.744.906,2.667,2.667,0,0,0,1.775-.046,3.876,3.876,0,0,0,1.471-.994,6.437,6.437,0,0,0,.993-1.451,16.273,16.273,0,0,0,.69-1.571,5.891,5.891,0,0,0,.4-1.528,2.808,2.808,0,0,0-.2-1.4,1.93,1.93,0,0,0-.356-.547,1.972,1.972,0,0,0-.5-.378,2.257,2.257,0,0,0-.574-.213,3.226,3.226,0,0,0-.589-.083,4.972,4.972,0,0,0-1.108.073c-.691.127-1.287.31-1.786.411a5.547,5.547,0,0,1-1.167.141.98.98,0,0,1-.408-.05,1.549,1.549,0,0,1,.4-.057,7.6,7.6,0,0,0,1.124-.235c.484-.13,1.063-.34,1.779-.5a5.113,5.113,0,0,1,1.177-.12,3.515,3.515,0,0,1,.654.072,2.6,2.6,0,0,1,.668.227,2.247,2.247,0,0,1,1.057,1.09,3.21,3.21,0,0,1,.266,1.606,6.263,6.263,0,0,1-.4,1.654c-.131.352-.271.707-.428,1.064.333-.173.867-.415,1.436-.746.413-.236.777-.479,1.067-.672l.039-.06c.069-.1.113-.153.13-.146s.009.04-.006.1c.067-.043.122-.078.154-.1a.539.539,0,0,0,.042-.037c-.109-.093-.212-.176-.305-.244-.231-.172-.392-.281-.37-.355s.229-.086.543.02a2.159,2.159,0,0,1,.516.262,2.578,2.578,0,0,1,.9,1.086,2.16,2.16,0,0,1,.161.556c.045.329-.013.532-.082.538s-.154-.171-.28-.43c-.062-.13-.142-.279-.237-.439a4.736,4.736,0,0,0-.348-.49c-.1-.113-.193-.217-.29-.312,0,.006,0,.013-.008.019a1.236,1.236,0,0,1-.178.232,4.406,4.406,0,0,1-.551.512,9.518,9.518,0,0,1-.934,1.5,10.8,10.8,0,0,1-5.365,3.794,11.134,11.134,0,0,1-3.625.523c-.141,0-.281-.007-.418-.018s-.273-.017-.406-.033c-.266-.026-.524-.059-.773-.108a4.474,4.474,0,0,1-1.348-.463,2.6,2.6,0,0,1-.891-.793,2.12,2.12,0,0,1-.349-.827,1.494,1.494,0,0,1-.02-.389,4.169,4.169,0,0,0-.508.47,3.064,3.064,0,0,0-.512.8,2.676,2.676,0,0,0-.226,1.2,2.771,2.771,0,0,0,.456,1.392,2.806,2.806,0,0,0,1.3,1.039,6.156,6.156,0,0,0,1.89.4,18.286,18.286,0,0,0,2.136.036,32.585,32.585,0,0,0,4.126-.476,6.751,6.751,0,0,0,1.7-.444,2.291,2.291,0,0,0,.625-.418,1.739,1.739,0,0,0,.387-.565,5.275,5.275,0,0,0,.267-.877c-.014-.019,0-.063.031-.125.02-.079.04-.158.061-.233a2.77,2.77,0,0,1,.433-.937,1.336,1.336,0,0,1,.5-.425c.14-.06.22-.061.225-.047s-.06.056-.17.139a1.547,1.547,0,0,0-.385.448,2.494,2.494,0,0,0-.223.523l.01-.01a6.018,6.018,0,0,1,.682-.566,7.1,7.1,0,0,1,1.937-.975,6,6,0,0,1,.861-.212c.5-.081.815-.059.826.011.019.119-.68.31-1.6.7.309.067.713.153,1.2.231.288.047.606.083.947.115s.706.045,1.089.036a9.49,9.49,0,0,0,2.449-.35,7.949,7.949,0,0,0,3.081-1.7c.124-.115.244-.227.354-.339s.217-.221.306-.334a7.937,7.937,0,0,0,.8-1.115l.079-.132a7.294,7.294,0,0,1-.968-.884,5.9,5.9,0,0,1-1.236-2.059,5.528,5.528,0,0,1-.255-1.064,4.873,4.873,0,0,1-.027-1.01,4.616,4.616,0,0,1,.462-1.656,4.728,4.728,0,0,0,.42-1.152,1.816,1.816,0,0,0-.015-.757c-.044-.17-.088-.257-.07-.268s.089.059.171.232a1.644,1.644,0,0,1,.119.818,4.409,4.409,0,0,1-.351,1.242,4.494,4.494,0,0,0-.36,1.564,5.28,5.28,0,0,0,1.5,3.777,7.727,7.727,0,0,0,1.979,1.486,11.767,11.767,0,0,0,2.51.969c.6.161,1.192.288,1.782.4.295.055.588.106.878.155l.217.036.041.007h.009l.019,0,0-.007Zm-30.993-4.9c0,.091,0,.2,0,.272-.223-.106-.446-.205-.661-.3-.027-.012-.052-.022-.08-.032l-.055-.019-.076-.027c-.05-.02-.1-.032-.151-.048a3.955,3.955,0,0,0-.587-.131,4.473,4.473,0,0,0-1-.036c-.565.043-.9.151-.928.091h-.009c-.034,0-.072-.005-.122-.013s-.133-.026-.22-.046l-.016,0c-.007,0-.011,0-.01-.009l0-.031-.01-.067-.018-.144-.015-.126-.011-.129a2.1,2.1,0,0,1,.048-.629,1.291,1.291,0,0,1,.154-.367,1.087,1.087,0,0,1,.314-.326,1.177,1.177,0,0,1,.451-.178,1.677,1.677,0,0,1,.485-.01,3.4,3.4,0,0,1,.926.269,3.587,3.587,0,0,1,.9.515,2.027,2.027,0,0,1,.535.658c.017.032.03.064.045.1s.04.11.06.164a1.617,1.617,0,0,1,.062.32C486.067,420.722,486.063,420.811,486.064,420.906Zm2,1.681c-.207.8-.2,1.487-.349,1.513-.07.011-.168-.159-.224-.46a2.993,2.993,0,0,1,.565-2.252c.191-.239.358-.342.415-.3C488.592,421.183,488.258,421.788,488.064,422.587Zm3.151-.591a1.158,1.158,0,0,1,.1-.087l.056-.037.029-.033c.175-.2.415-.494.729-.861a6.729,6.729,0,0,1,.556-.582,3.2,3.2,0,0,1,.8-.545,1.784,1.784,0,0,1,1.126-.164,1.11,1.11,0,0,1,.585.334,1.244,1.244,0,0,1,.3.608,1.414,1.414,0,0,1-.026.657,1.742,1.742,0,0,1-.269.551,2.1,2.1,0,0,1-.184.223c-.032.035-.065.068-.1.1s-.055.052-.129.116l-.186.149-.046.036-.011.009s-.008,0-.012-.006l-.023-.014-.092-.057-.181-.113c-.036-.023-.042-.024-.061-.035l-.048-.026a3.168,3.168,0,0,0-1.5-.38,3.689,3.689,0,0,0-1.067.162l-.043.014c-.208.144-.342.2-.361.169s0-.038.028-.077c-.017,0-.029,0-.034-.01S491.161,422.047,491.215,422Zm16.3-7.369a1.475,1.475,0,0,1-.143.257,1.6,1.6,0,0,1-.194.218,1.546,1.546,0,0,1-.491.313,2.187,2.187,0,0,1-.454.129c0,.036,0,.074,0,.115a3.626,3.626,0,0,1-.318,1.281,4.122,4.122,0,0,1-7.276.472,3.632,3.632,0,0,1-.481-1.229c-.012-.077-.021-.146-.028-.2a1.412,1.412,0,0,1,0-.152.467.467,0,0,1,.01-.1,2.72,2.72,0,0,1-.718-.043,1.728,1.728,0,0,1-1.137-.709,1.218,1.218,0,0,1-.184-.538,1.238,1.238,0,0,1,.039-.467.9.9,0,0,1,.358-.523l.084-.047a.555.555,0,0,1,.066-.021c.036-.009.055-.009.059,0s-.008.025-.033.049l-.047.041-.059.061a.9.9,0,0,0-.224.485,1.092,1.092,0,0,0,.01.385.982.982,0,0,0,.178.406,1.443,1.443,0,0,0,.957.506,3.284,3.284,0,0,0,1.4-.158c.255-.072.522-.158.808-.236a7.01,7.01,0,0,1,.9-.18,9.616,9.616,0,0,1,1.956-.045c.674.046,1.361.143,2.057.252a7.329,7.329,0,0,0,1,.11,2.273,2.273,0,0,0,.887-.128,1.032,1.032,0,0,0,.337-.208,1.092,1.092,0,0,0,.13-.142.987.987,0,0,0,.092-.161,1.113,1.113,0,0,0,.04-.746,1.611,1.611,0,0,0-.506-.794,1.733,1.733,0,0,0-.148-.106,2.054,2.054,0,0,0-.329-.169,3.214,3.214,0,0,0-1.389-.174,9.234,9.234,0,0,0-1.2.185c-.358.072-.671.133-.93.167a1.711,1.711,0,0,1-.812,0,3.989,3.989,0,0,1,.772-.208c.247-.064.546-.152.9-.253a8.069,8.069,0,0,1,1.238-.271,3.492,3.492,0,0,1,1.581.136,2.468,2.468,0,0,1,.411.194,2.154,2.154,0,0,1,.2.134,2.056,2.056,0,0,1,.69,1.022A1.6,1.6,0,0,1,507.516,414.628Z" transform="translate(-461.459 -369.737)" fill="#e28263"/>
        <path id="Path_157" data-name="Path 157" d="M726.694,336.853a27.712,27.712,0,0,0-.637-4.115c-.081-.347-.175-.688-.271-1.026a8.132,8.132,0,0,0-.33-.968,2.18,2.18,0,0,0-.232-.4,1.565,1.565,0,0,0-.145-.167,1.065,1.065,0,0,0-.539-.284.888.888,0,0,0-.193-.013.744.744,0,0,0-.091.012l-.037.007h0s-.005,0,0,0v0l.023.1c.023.085.033.173.047.259s.03.173.039.259c.014.173.038.345.039.517q0,.128.008.257t-.006.254a9.688,9.688,0,0,1-.277,1.945c-.146.619-.328,1.208-.516,1.773s-.375,1.106-.577,1.633a8.608,8.608,0,0,1-.718,1.481,4.561,4.561,0,0,1-1.015,1.16,5.387,5.387,0,0,1-1.2.7c-.4.173-.784.3-1.142.421-.715.231-1.331.426-1.837.582-.726.225-1.22.368-1.446.418a1.113,1.113,0,0,0-.092.132,1.529,1.529,0,0,0-.182.8,2.708,2.708,0,0,0,.014.283c.009.1.03.205.045.313.008.054.015.109.025.165l.037.168c.026.114.047.231.085.348a6.246,6.246,0,0,0,.616,1.468,6.726,6.726,0,0,0,.958,1.276,7.5,7.5,0,0,0,1,.854c.426.3.768.477.932.587l.123.03a5.042,5.042,0,0,0,1.186.139,5.5,5.5,0,0,0,1.84-.336,5.759,5.759,0,0,0,2.076-1.315,7.611,7.611,0,0,0,1.661-2.485,10.888,10.888,0,0,0,.794-3.366A23.15,23.15,0,0,0,726.694,336.853Z" transform="translate(-666.819 -301.115)" fill="url(#linear-gradient)"/>
        <path id="Path_158" data-name="Path 158" d="M625.34,467.416a1.017,1.017,0,0,1-.041.725,1.559,1.559,0,0,1-.32.469,2.7,2.7,0,0,1-.487.39,2.6,2.6,0,0,1-1.368.426,1.954,1.954,0,0,1-1.37-.536,1.533,1.533,0,0,1-.368-.556,1.421,1.421,0,0,1-.089-.568,1.2,1.2,0,0,1,.275-.737,7.873,7.873,0,0,0-.8.049,6.866,6.866,0,0,0-.846.147c-.273.065-.542.143-.811.209a5.211,5.211,0,0,1-.8.142h0a.525.525,0,0,1,.041.079l.126.32a4.886,4.886,0,0,0,.594,1.076,4.167,4.167,0,0,0,1.338,1.171,3.939,3.939,0,0,0,4.111-.267,4.16,4.16,0,0,0,1.176-1.334,4.871,4.871,0,0,0,.45-1.144l.014-.057a3.814,3.814,0,0,1-.45.019C625.585,467.436,625.463,467.427,625.34,467.416Z" transform="translate(-581.576 -421.583)" fill="#fff"/>
        <circle id="Ellipse_3" data-name="Ellipse 3" cx="0.323" cy="0.323" r="0.323" transform="translate(42.345 45.702)" fill="#fff"/>
        <circle id="Ellipse_4" data-name="Ellipse 4" cx="0.323" cy="0.323" r="0.323" transform="translate(30.715 45.379)" fill="#fff"/>
      </g>
      <path id="Path_309" data-name="Path 309" d="M730.142,392.767a17.388,17.388,0,0,0,6.028-3.817,11.657,11.657,0,0,0,2.5-5.77,25.035,25.035,0,0,1-1.115,7.067,7.042,7.042,0,0,1-4.968,4.562A4.96,4.96,0,0,1,730.142,392.767Z" transform="translate(-660.716 -186.809)" fill="url(#linear-gradient-4)"/>
    </g>
    <g id="Path_569" data-name="Path 569" transform="translate(55 317.026)" fill="#bffc22">
      <path d="M 23.37599945068359 1.666214942932129 C 21.51224899291992 1.666214942932129 19.59617042541504 1.068784952163696 18.49456024169922 0.1441949903964996 L 18.21336936950684 -0.09180501103401184 L 18.35433006286621 -0.4307750165462494 L 19.23432922363281 -2.546935081481934 L 19.48786926269531 -3.156625032424927 L 20.0059700012207 -2.747265100479126 C 20.91044044494629 -2.032644987106323 22.2078800201416 -1.588714957237244 23.39200019836426 -1.588714957237244 C 24.1759090423584 -1.588714957237244 24.57439994812012 -1.744675040245056 24.77064895629883 -1.875504970550537 C 24.96522903442383 -2.005224943161011 25.05200004577637 -2.163784980773926 25.05200004577637 -2.38963508605957 C 25.05200004577637 -2.906004905700684 24.27479934692383 -3.139004945755005 22.99481010437012 -3.461385011672974 C 22.04417037963867 -3.700804948806763 20.96669006347656 -3.972175121307373 20.10654067993164 -4.548675060272217 C 19.06706047058105 -5.245375156402588 18.53999900817871 -6.275565147399902 18.53999900817871 -7.610654830932617 C 18.53999900817871 -8.814035415649414 19.01444053649902 -9.893754959106445 19.87590980529785 -10.65093517303467 C 20.79966926574707 -11.46284484863281 22.14275932312012 -11.89199542999268 23.76000022888184 -11.89199542999268 C 25.32967948913574 -11.89199542999268 26.84967041015625 -11.4682149887085 27.93022918701172 -10.72930526733398 L 28.2537899017334 -10.5080451965332 L 28.11616897583008 -10.14102458953857 L 27.31616973876953 -8.007514953613281 L 27.10273933410645 -7.438324928283691 L 26.58542060852051 -7.757565021514893 C 25.65303039550781 -8.332944869995117 24.67049026489258 -8.637075424194336 23.74399948120117 -8.637075424194336 C 23.00131034851074 -8.637075424194336 22.11599922180176 -8.483075141906738 22.11599922180176 -7.749424934387207 C 22.11599922180176 -7.24883508682251 22.890869140625 -7.020595073699951 24.16704940795898 -6.704195022583008 C 25.11813926696777 -6.468385219573975 26.19612884521484 -6.201125144958496 27.05702018737793 -5.631824970245361 C 28.09944915771484 -4.942474842071533 28.62800025939941 -3.921684980392456 28.62800025939941 -2.597784996032715 C 28.62800025939941 -1.408244967460632 28.14950942993164 -0.3357750177383423 27.28066062927246 0.4220549762248993 C 26.34749984741211 1.235994935035706 24.99728965759277 1.666214942932129 23.37599945068359 1.666214942932129 Z M 14.96338939666748 1.458065032958984 L 14.59200000762939 1.458065032958984 L 11.80799961090088 1.458065032958984 L 11.43587017059326 1.458065032958984 L 11.32905006408691 1.10160493850708 L 9.336362838745117 -5.547540664672852 L 7.277659893035889 1.105865001678467 L 7.168679714202881 1.458065032958984 L 6.799999713897705 1.458065032958984 L 4.031999588012695 1.458065032958984 L 3.661079883575439 1.458065032958984 L 3.553489685058594 1.103094935417175 L -0.1265102326869965 -11.03882503509521 L -0.3220002353191376 -11.6838550567627 L 0.3519997596740723 -11.6838550567627 L 3.039999723434448 -11.6838550567627 L 3.413359880447388 -11.6838550567627 L 3.519409656524658 -11.32586479187012 L 5.578369140625 -4.375216007232666 L 7.730329990386963 -11.33162498474121 L 7.83929967880249 -11.6838550567627 L 8.208000183105469 -11.6838550567627 L 10.60799980163574 -11.6838550567627 L 10.98088932037354 -11.6838550567627 L 11.08722972869873 -11.32645511627197 L 13.17244434356689 -4.318650722503662 L 15.29749965667725 -11.32890510559082 L 15.40509986877441 -11.6838550567627 L 15.77600002288818 -11.6838550567627 L 18.25600051879883 -11.6838550567627 L 18.92914962768555 -11.6838550567627 L 18.73468017578125 -11.03940486907959 L 15.07067966461182 1.102514982223511 L 14.96338939666748 1.458065032958984 Z" stroke="none"/>
      <path d="M 23.76000022888184 -11.39200496673584 C 20.57600021362305 -11.39200496673584 19.04000091552734 -9.674784660339355 19.04000091552734 -7.610665321350098 C 19.04000091552734 -3.100804805755615 25.55200004577637 -4.661904811859131 25.55200004577637 -2.38963508605957 C 25.55200004577637 -1.64377498626709 24.92799949645996 -1.088714599609375 23.39200019836426 -1.088714599609375 C 22.04800033569336 -1.088714599609375 20.63999938964844 -1.609085083007812 19.69599914550781 -2.354945182800293 L 18.81599998474121 -0.2387847900390625 C 19.80799865722656 0.5938053131103516 21.60000038146973 1.166205406188965 23.37599945068359 1.166205406188965 C 26.57600021362305 1.166205406188965 28.12800025939941 -0.5683450698852539 28.12800025939941 -2.597784996032715 C 28.12800025939941 -7.055604934692383 21.61599922180176 -5.511845111846924 21.61599922180176 -7.749424934387207 C 21.61599922180176 -8.512635231018066 22.20800018310547 -9.137075424194336 23.74399948120117 -9.137075424194336 C 24.73600006103516 -9.137075424194336 25.8080005645752 -8.824854850769043 26.84799957275391 -8.183065414428711 L 27.64799880981445 -10.316575050354 C 26.60799980163574 -11.02774524688721 25.16799926757812 -11.39200496673584 23.76000022888184 -11.39200496673584 M 0.3519992828369141 -11.1838550567627 L 4.031999588012695 0.9580650329589844 L 6.799999237060547 0.9580650329589844 L 9.343999862670898 -7.263745307922363 L 11.8080005645752 0.9580650329589844 L 14.59200000762939 0.9580650329589844 L 18.25600051879883 -11.1838550567627 L 15.77600002288818 -11.1838550567627 L 13.16800022125244 -2.580434799194336 L 10.60799980163574 -11.1838550567627 L 8.208000183105469 -11.1838550567627 L 5.567998886108398 -2.649825096130371 L 3.039999008178711 -11.1838550567627 L 0.3519992828369141 -11.1838550567627 M 23.76000022888184 -12.39200496673584 C 25.42792892456055 -12.39200496673584 27.05078887939453 -11.93640518188477 28.21245956420898 -11.14203453063965 L 28.85957908630371 -10.69952487945557 L 27.35747909545898 -6.693574905395508 L 26.32283973693848 -7.332065105438232 C 25.46942901611328 -7.858705043792725 24.57768058776855 -8.137075424194336 23.74399948120117 -8.137075424194336 C 23.05868911743164 -8.137075424194336 22.78470039367676 -7.98912525177002 22.69870948791504 -7.925515174865723 C 22.64262580871582 -7.884026527404785 22.61792755126953 -7.850992202758789 22.61610794067383 -7.760566711425781 C 22.81223678588867 -7.555227756500244 23.73181343078613 -7.327234268188477 24.28736877441406 -7.189495086669922 C 25.27766036987305 -6.94397497177124 26.40007019042969 -6.665695190429688 27.33281898498535 -6.048884868621826 C 28.52400970458984 -5.261155128479004 29.12800025939941 -4.100035190582275 29.12800025939941 -2.597784996032715 C 29.12800025939941 -1.261634826660156 28.58865928649902 -0.05534458160400391 27.60931968688965 0.7988653182983398 C 26.58375930786133 1.693385124206543 25.11989974975586 2.166205406188965 23.37599945068359 2.166205406188965 C 21.40167045593262 2.166205406188965 19.35942077636719 1.522854804992676 18.17311859130859 0.5271854400634766 L 17.61074066162109 0.05517482757568359 L 19.27973937988281 -3.958304882049561 L 20.31594848632812 -3.139585018157959 C 21.12392044067383 -2.501204967498779 22.33134078979492 -2.088714599609375 23.39200019836426 -2.088714599609375 C 24.11141014099121 -2.088714599609375 24.40182876586914 -2.230545043945312 24.49329948425293 -2.291534900665283 C 24.55129432678223 -2.330194473266602 24.5519905090332 -2.338318824768066 24.55200004577637 -2.38780689239502 C 24.52246284484863 -2.417686939239502 24.41963195800781 -2.502959728240967 24.12443923950195 -2.616505146026611 C 23.78728866577148 -2.746174812316895 23.3430290222168 -2.858065128326416 22.87269020080566 -2.976524829864502 C 21.88259887695312 -3.225884914398193 20.76041030883789 -3.508514881134033 19.82817077636719 -4.133335113525391 C 18.78162002563477 -4.834778308868408 18.19010543823242 -5.827687740325928 18.06509780883789 -7.089792251586914 L 15.33477020263672 1.958065032958984 L 11.06374931335449 1.958065032958984 L 9.328714370727539 -3.83134126663208 L 7.537359237670898 1.958065032958984 L 3.290159225463867 1.958065032958984 L -0.9960002899169922 -12.1838550567627 L 3.78672981262207 -12.1838550567627 L 5.588747024536133 -6.100606918334961 L 7.470590591430664 -12.1838550567627 L 11.35376930236816 -12.1838550567627 L 13.17689418792725 -6.056883335113525 L 15.03419971466064 -12.1838550567627 L 19.60229873657227 -12.1838550567627 L 19.12552070617676 -10.60386848449707 C 19.25485038757324 -10.75283145904541 19.39511108398438 -10.89402389526367 19.54582977294922 -11.0264949798584 C 20.56221008300781 -11.91981506347656 22.01944923400879 -12.39200496673584 23.76000022888184 -12.39200496673584 Z" stroke="none" fill="#081121"/>
    </g>
  </g>
</svg>
